<svg xmlns="http://www.w3.org/2000/svg" width="38" height="39" viewBox="0 0 38 39">
  <g fill="none" transform="translate(-265 -113)">
    <path fill="#FFF" d="M284,151.375 C286.622396,151.375 289.090169,150.880208 291.40332,149.890625 C293.716471,148.901042 295.732747,147.546549 297.452148,145.827148 C299.171549,144.107747 300.526042,142.091471 301.515625,139.77832 C302.505208,137.465169 303,134.997396 303,132.375 C303,129.752604 302.505208,127.284831 301.515625,124.97168 C300.526042,122.658529 299.171549,120.642253 297.452148,118.922852 C295.732747,117.203451 293.716471,115.848958 291.40332,114.859375 C289.090169,113.869792 286.622396,113.375 284,113.375 C281.377604,113.375 278.909831,113.869792 276.59668,114.859375 C274.283529,115.848958 272.267253,117.203451 270.547852,118.922852 C268.828451,120.642253 267.473958,122.658529 266.484375,124.97168 C265.494792,127.284831 265,129.752604 265,132.375 C265,134.997396 265.494792,137.465169 266.484375,139.77832 C267.473958,142.091471 268.828451,144.107747 270.547852,145.827148 C272.267253,147.546549 274.283529,148.901042 276.59668,149.890625 C278.909831,150.880208 281.377604,151.375 284,151.375 Z"/>
    <path fill="#555" d="M284,151.375 C286.622396,151.375 289.090169,150.880208 291.40332,149.890625 C293.716471,148.901042 295.732747,147.546549 297.452148,145.827148 C299.171549,144.107747 300.526042,142.091471 301.515625,139.77832 C302.505208,137.465169 303,134.997396 303,132.375 C303,129.752604 302.505208,127.284831 301.515625,124.97168 C300.526042,122.658529 299.171549,120.642253 297.452148,118.922852 C295.732747,117.203451 293.716471,115.848958 291.40332,114.859375 C289.090169,113.869792 286.622396,113.375 284,113.375 C281.377604,113.375 278.909831,113.869792 276.59668,114.859375 C274.283529,115.848958 272.267253,117.203451 270.547852,118.922852 C268.828451,120.642253 267.473958,122.658529 266.484375,124.97168 C265.494792,127.284831 265,129.752604 265,132.375 C265,134.997396 265.494792,137.465169 266.484375,139.77832 C267.473958,142.091471 268.828451,144.107747 270.547852,145.827148 C272.267253,147.546549 274.283529,148.901042 276.59668,149.890625 C278.909831,150.880208 281.377604,151.375 284,151.375 Z M284,149.037109 C281.699219,149.037109 279.54069,148.597982 277.524414,147.719727 C275.508138,146.841471 273.751628,145.647786 272.254883,144.138672 C270.758138,142.629557 269.570638,140.866862 268.692383,138.850586 C267.814128,136.83431 267.375,134.675781 267.375,132.375 C267.375,130.074219 267.814128,127.91569 268.692383,125.899414 C269.570638,123.883138 270.758138,122.126628 272.254883,120.629883 C273.751628,119.133138 275.508138,117.945638 277.524414,117.067383 C279.54069,116.189128 281.699219,115.75 284,115.75 C286.300781,115.75 288.45931,116.189128 290.475586,117.067383 C292.491862,117.945638 294.248372,119.133138 295.745117,120.629883 C297.241862,122.126628 298.429362,123.883138 299.307617,125.899414 C300.185872,127.91569 300.625,130.074219 300.625,132.375 C300.625,134.675781 300.185872,136.83431 299.307617,138.850586 C298.429362,140.866862 297.241862,142.629557 295.745117,144.138672 C294.248372,145.647786 292.491862,146.841471 290.475586,147.719727 C288.45931,148.597982 286.300781,149.037109 284,149.037109 Z M284,141.875 C284.321615,141.875 284.599935,141.757487 284.834961,141.522461 C285.069987,141.287435 285.1875,141.009115 285.1875,140.6875 L285.1875,133.5625 L292.3125,133.5625 C292.634115,133.5625 292.912435,133.444987 293.147461,133.209961 C293.382487,132.974935 293.5,132.696615 293.5,132.375 C293.5,132.053385 293.382487,131.775065 293.147461,131.540039 C292.912435,131.305013 292.634115,131.1875 292.3125,131.1875 L285.1875,131.1875 L285.1875,124.0625 C285.1875,123.740885 285.069987,123.462565 284.834961,123.227539 C284.599935,122.992513 284.321615,122.875 284,122.875 C283.678385,122.875 283.400065,122.992513 283.165039,123.227539 C282.930013,123.462565 282.8125,123.740885 282.8125,124.0625 L282.8125,131.1875 L275.6875,131.1875 C275.365885,131.1875 275.087565,131.305013 274.852539,131.540039 C274.617513,131.775065 274.5,132.053385 274.5,132.375 C274.5,132.696615 274.617513,132.974935 274.852539,133.209961 C275.087565,133.444987 275.365885,133.5625 275.6875,133.5625 L282.8125,133.5625 L282.8125,140.6875 C282.8125,141.009115 282.930013,141.287435 283.165039,141.522461 C283.400065,141.757487 283.678385,141.875 284,141.875 Z"/>
  </g>
</svg>
