<svg xmlns="http://www.w3.org/2000/svg" width="46" height="46" viewBox="0 0 46 46">
  <g fill="none">
    <path fill="#20AEE4" d="M23,46 C19.8169643,46 16.8307292,45.3931624 14.0412946,44.1794872 C11.2518601,42.965812 8.8218006,41.3162393 6.75111607,39.2307692 C4.68043155,37.1452991 3.0375744,34.7094017 1.82254464,31.9230769 C0.607514881,29.1367521 0,26.1538462 0,22.974359 C0,19.7948718 0.607514881,16.8119658 1.82254464,14.025641 C3.0375744,11.2393162 4.68043155,8.81196581 6.75111607,6.74358974 C8.8218006,4.67521368 11.2518601,3.03418803 14.0412946,1.82051282 C16.8307292,0.606837607 19.8169643,0 23,0 C26.1830357,0 29.1692708,0.606837607 31.9587054,1.82051282 C34.7481399,3.03418803 37.1781994,4.67521368 39.2488839,6.74358974 C41.3195685,8.81196581 42.9624256,11.2393162 44.1774554,14.025641 C45.3924851,16.8119658 46,19.7948718 46,22.974359 C46,26.1538462 45.3924851,29.1367521 44.1774554,31.9230769 C42.9624256,34.7094017 41.3195685,37.1452991 39.2488839,39.2307692 C37.1781994,41.3162393 34.7481399,42.965812 31.9587054,44.1794872 C29.1692708,45.3931624 26.1830357,46 23,46 Z"/>
    <path fill="#FFF" d="M25.5,9 L25.5,20.5 L37,20.5 L37,25.5 L25.499,25.5 L25.5,37 L20.5,37 L20.499,25.5 L9,25.5 L9,20.5 L20.5,20.5 L20.5,9 L25.5,9 Z" transform="rotate(45 23 23)"/>
  </g>
</svg>
