<svg xmlns="http://www.w3.org/2000/svg" width="52" height="52" viewBox="0 0 52 52">
  <path fill="#20AEE4" d="M141.895375 141.173167C142.589023 140.928621 143.296633 140.942763 144.0068 141.233394 146.747983 142.481099 149.156324 144.119738 151.226895 146.14746 153.290214 148.168079 154.960939 150.428426 156.235932 152.925642 157.51177 155.424513 158.35278 158.094133 158.758201 160.93007 159.164873 163.774758 159.058392 166.656613 158.44169 169.562933 157.823098 172.591884 156.70907 175.36201 155.100621 177.867089 153.499915 180.360108 151.558974 182.506755 149.280394 184.303242 147.004004 186.098003 144.4671 187.496071 141.673674 188.495987 138.87263 189.498629 135.945732 190 132.898058 190 132.045308 190 131.174495 189.952623 130.285694 189.858013 129.410809 189.764885 128.536045 189.643835 127.632915 189.489593 125.931808 189.14884 124.306024 188.646557 122.756674 187.982744 121.213434 187.321549 119.755994 186.527566 118.385158 185.601074 117.01237 184.673263 115.736363 183.612996 114.557788 182.420968 113.380709 181.230454 112.310506 179.918023 111.354429 178.494721 110.386715 177.092144 109.573585 175.603816 108.915569 174.030724 108.257645 172.457853 107.773313 170.854688 107.463174 169.22219 107.154402 167.596883 107 165.952512 107 164.289903 107 162.823896 107.148666 161.344895 107.441453 159.872857L107.575744 159.242468C107.962987 157.270478 108.583034 155.382416 109.435419 153.580125 110.286107 151.781422 111.330876 150.114069 112.568961 148.579544 113.806035 147.046274 115.216857 145.664647 116.800157 144.435565 118.383655 143.206328 120.120339 142.157536 121.986628 141.299981 122.672646 140.96407 123.405764 140.920114 124.123542 141.173167 124.783566 141.405858 125.289618 141.83887 125.576886 142.392091L125.656438 142.561583C126.005571 143.245401 126.051542 143.980707 125.787947 144.69776 125.524034 145.415682 125.014431 145.944985 124.35294 146.21361 122.861641 146.909056 121.49718 147.742028 120.25809 148.712786 119.018676 149.683798 117.913071 150.775185 116.940088 151.9879 115.96683 153.200958 115.144364 154.508726 114.471893 155.912487 113.801927 157.311018 113.308115 158.787705 112.990715 160.341846 112.459635 162.976966 112.450801 165.589579 112.96364 168.187298 113.476806 170.786679 114.475894 173.211064 115.958295 175.457886 117.48501 177.717952 119.326398 179.581921 121.486092 181.055487 123.640576 182.525499 126.061108 183.537694 128.747981 184.091675 131.553462 184.648115 134.279283 184.656782 136.932917 184.119714 139.596153 183.580702 142.022575 182.600732 144.218658 181.178537 146.414558 179.75646 148.291062 177.953462 149.852308 175.764302 151.40534 173.586659 152.46371 171.150961 153.028125 168.456534 153.488643 166.166901 153.559332 163.908421 153.241292 161.676304 152.922387 159.438112 152.268181 157.342957 151.278122 155.386502 150.289914 153.433705 148.974715 151.670294 147.328831 150.093133 145.682228 148.515283 143.777633 147.222669 141.593152 146.205425 140.924093 145.877819 140.439072 145.359654 140.179986 144.683057 139.910133 143.97834 139.956805 143.247047 140.306779 142.561583 140.612345 141.963098 141.08309 141.518774 141.688592 141.254539L141.895375 141.173167zM133 132C133.784118 132 134.48891 132.263243 135.068824 132.776244 135.623131 133.266592 135.943655 133.882219 135.993226 134.577629L136 134.769231 136 154.230769C136 155.004814 135.673522 155.688831 135.068824 156.223756 134.48891 156.736757 133.784118 157 133 157 132.215882 157 131.51109 156.736757 130.931176 156.223756 130.376869 155.733408 130.056345 155.117781 130.006774 154.422371L130 154.230769 130 134.769231C130 133.995186 130.326478 133.311169 130.931176 132.776244 131.51109 132.263243 132.215882 132 133 132zM185 239C188.588542 239 191.965495 238.322917 195.130859 236.96875 198.296224 235.614583 201.055339 233.761068 203.408203 231.408203 205.761068 229.055339 207.614583 226.296224 208.96875 223.130859 210.322917 219.965495 211 216.588542 211 213 211 209.411458 210.322917 206.034505 208.96875 202.869141 207.614583 199.703776 205.761068 196.944661 203.408203 194.591797 201.055339 192.238932 198.296224 190.385417 195.130859 189.03125 191.965495 187.677083 188.588542 187 185 187 181.411458 187 178.034505 187.677083 174.869141 189.03125 171.703776 190.385417 168.944661 192.238932 166.591797 194.591797 164.238932 196.944661 162.385417 199.703776 161.03125 202.869141 159.677083 206.034505 159 209.411458 159 213 159 216.588542 159.677083 219.965495 161.03125 223.130859 162.385417 226.296224 164.238932 229.055339 166.591797 231.408203 168.944661 233.761068 171.703776 235.614583 174.869141 236.96875 178.034505 238.322917 181.411458 239 185 239zM185 236C181.816964 236 178.830729 235.393162 176.041295 234.179487 173.25186 232.965812 170.821801 231.316239 168.751116 229.230769 166.680432 227.145299 165.037574 224.709402 163.822545 221.923077 162.607515 219.136752 162 216.153846 162 212.974359 162 209.794872 162.607515 206.811966 163.822545 204.025641 165.037574 201.239316 166.680432 198.811966 168.751116 196.74359 170.821801 194.675214 173.25186 193.034188 176.041295 191.820513 178.830729 190.606838 181.816964 190 185 190 188.183036 190 191.169271 190.606838 193.958705 191.820513 196.74814 193.034188 199.178199 194.675214 201.248884 196.74359 203.319568 198.811966 204.962426 201.239316 206.177455 204.025641 207.392485 206.811966 208 209.794872 208 212.974359 208 216.153846 207.392485 219.136752 206.177455 221.923077 204.962426 224.709402 203.319568 227.145299 201.248884 229.230769 199.178199 231.316239 196.74814 232.965812 193.958705 234.179487 191.169271 235.393162 188.183036 236 185 236zM193.425 223C193.875 223 194.25 222.85 194.55 222.55 194.85 222.25 195 221.875 195 221.425 195 220.975 194.85 220.6 194.55 220.3L187.75 213.5 194.55 206.7C194.85 206.4 195 206.025 195 205.575 195 205.125 194.85 204.75 194.55 204.45 194.25 204.15 193.875 204 193.425 204 192.975 204 192.6 204.15 192.3 204.45L185.5 211.25 178.7 204.45C178.4 204.15 178.025 204 177.575 204 177.125 204 176.75 204.15 176.45 204.45 176.15 204.75 176 205.125 176 205.575 176 206.025 176.15 206.4 176.45 206.7L183.25 213.5 176.45 220.3C176.15 220.6 176 220.975 176 221.425 176 221.875 176.15 222.25 176.45 222.55 176.75 222.85 177.125 223 177.575 223 178.025 223 178.4 222.85 178.7 222.55L185.5 215.75 192.3 222.55C192.6 222.85 192.975 223 193.425 223z" transform="translate(-159 -187)"/>
</svg>
