<svg xmlns="http://www.w3.org/2000/svg" width="14" height="14" viewBox="0 0 14 14">
  <path fill="#767676" d="M217.87466,146.789062 L222.484035,144.835938 C222.549139,144.809896 222.614244,144.770833 222.679348,144.71875 L230.433254,136.945312 C230.706692,136.671875 230.84341,136.339844 230.84341,135.949219 C230.84341,135.558594 230.706692,135.226562 230.433254,134.953125 L228.890285,133.410156 C228.616848,133.136719 228.284817,133 227.894192,133 C227.503567,133 227.171535,133.136719 226.898098,133.410156 L219.144192,141.164062 C219.079087,141.229167 219.033514,141.300781 219.007473,141.378906 L217.054348,145.96875 C216.950181,146.229167 216.995754,146.457031 217.191067,146.652344 C217.386379,146.847656 217.614244,146.893229 217.87466,146.789062 Z M228.226223,137.160156 L226.683254,135.617188 L227.894192,134.40625 L229.43716,135.949219 L228.226223,137.160156 Z M219.105129,144.738281 L220.237942,142.0625 L225.68716,136.613281 L227.230129,138.15625 L221.78091,143.605469 L219.105129,144.738281 Z" transform="translate(-217 -133)"/>
</svg>
