<svg xmlns="http://www.w3.org/2000/svg" width="14" height="14" viewBox="0 0 14 14">
  <path fill="#FFF" d="M0.874660023,13.789062 L5.48403502,11.835938 C5.54913902,11.809896 5.61424402,11.770833 5.67934802,11.71875 L13.433254,3.945312 C13.706692,3.671875 13.84341,3.339844 13.84341,2.949219 C13.84341,2.558594 13.706692,2.226562 13.433254,1.953125 L11.890285,0.410156 C11.616848,0.136719 11.284817,0 10.894192,0 C10.503567,0 10.171535,0.136719 9.89809802,0.410156 L2.14419202,8.164062 C2.07908702,8.229167 2.03351402,8.300781 2.00747302,8.378906 L0.0543480227,12.96875 C-0.0498189773,13.229167 -0.00424597732,13.457031 0.191067023,13.652344 C0.386379023,13.847656 0.614244023,13.893229 0.874660023,13.789062 Z M11.226223,4.160156 L9.68325402,2.617188 L10.894192,1.40625 L12.43716,2.949219 L11.226223,4.160156 Z M2.10512902,11.738281 L3.23794202,9.0625 L8.68716002,3.613281 L10.230129,5.15625 L4.78091002,10.605469 L2.10512902,11.738281 Z"/>
</svg>
