<svg xmlns="http://www.w3.org/2000/svg" width="38" height="38" viewBox="0 0 38 38">
  <path fill="#555" d="M309,197 C311.622396,197 314.090169,196.505208 316.40332,195.515625 C318.716471,194.526042 320.732747,193.171549 322.452148,191.452148 C324.171549,189.732747 325.526042,187.716471 326.515625,185.40332 C327.505208,183.090169 328,180.622396 328,178 C328,175.377604 327.505208,172.909831 326.515625,170.59668 C325.526042,168.283529 324.171549,166.267253 322.452148,164.547852 C320.732747,162.828451 318.716471,161.473958 316.40332,160.484375 C314.090169,159.494792 311.622396,159 309,159 C306.377604,159 303.909831,159.494792 301.59668,160.484375 C299.283529,161.473958 297.267253,162.828451 295.547852,164.547852 C293.828451,166.267253 292.473958,168.283529 291.484375,170.59668 C290.494792,172.909831 290,175.377604 290,178 C290,180.622396 290.494792,183.090169 291.484375,185.40332 C292.473958,187.716471 293.828451,189.732747 295.547852,191.452148 C297.267253,193.171549 299.283529,194.526042 301.59668,195.515625 C303.909831,196.505208 306.377604,197 309,197 Z M309,194.662109 C306.699219,194.662109 304.54069,194.222982 302.524414,193.344727 C300.508138,192.466471 298.751628,191.272786 297.254883,189.763672 C295.758138,188.254557 294.570638,186.491862 293.692383,184.475586 C292.814128,182.45931 292.375,180.300781 292.375,178 C292.375,175.699219 292.814128,173.54069 293.692383,171.524414 C294.570638,169.508138 295.758138,167.751628 297.254883,166.254883 C298.751628,164.758138 300.508138,163.570638 302.524414,162.692383 C304.54069,161.814128 306.699219,161.375 309,161.375 C311.300781,161.375 313.45931,161.814128 315.475586,162.692383 C317.491862,163.570638 319.248372,164.758138 320.745117,166.254883 C322.241862,167.751628 323.429362,169.508138 324.307617,171.524414 C325.185872,173.54069 325.625,175.699219 325.625,178 C325.625,180.300781 325.185872,182.45931 324.307617,184.475586 C323.429362,186.491862 322.241862,188.254557 320.745117,189.763672 C319.248372,191.272786 317.491862,192.466471 315.475586,193.344727 C313.45931,194.222982 311.300781,194.662109 309,194.662109 Z M310.1875,179.1875 L317.3125,179.1875 C317.634115,179.1875 317.912435,179.069987 318.147461,178.834961 C318.382487,178.599935 318.5,178.321615 318.5,178 C318.5,177.678385 318.382487,177.400065 318.147461,177.165039 C317.912435,176.930013 317.634115,176.8125 317.3125,176.8125 L310.1875,176.8125 L307.8125,176.8125 L300.6875,176.8125 C300.365885,176.8125 300.087565,176.930013 299.852539,177.165039 C299.617513,177.400065 299.5,177.678385 299.5,178 C299.5,178.321615 299.617513,178.599935 299.852539,178.834961 C300.087565,179.069987 300.365885,179.1875 300.6875,179.1875 L307.8125,179.1875 L310.1875,179.1875 Z" transform="translate(-290 -159)"/>
</svg>
