<svg xmlns="http://www.w3.org/2000/svg" width="16" height="18" viewBox="0 0 16 18">
  <path fill="#FFF" d="M35.5,37.4285714 C35.9910714,37.4285714 36.4114583,37.203497 36.7611607,36.7533482 C37.1108631,36.3031994 37.2857143,35.7693452 37.2857143,35.1517857 L37.2857143,35.1517857 L37.2857143,24.5714286 L38.3571429,24.5714286 C38.4613095,24.5714286 38.546875,24.5379464 38.6138393,24.4709821 C38.6808036,24.4040179 38.7142857,24.3184524 38.7142857,24.2142857 L38.7142857,24.2142857 L38.7142857,23.5 C38.7142857,23.3958333 38.6808036,23.3102679 38.6138393,23.2433036 C38.546875,23.1763393 38.4613095,23.1428571 38.3571429,23.1428571 L38.3571429,23.1428571 L34.9084821,23.1428571 L34.1272321,21.2790179 C34.015625,21.0037202 33.8147321,20.7693452 33.5245536,20.5758929 C33.234375,20.3824405 32.9404762,20.2857143 32.6428571,20.2857143 L32.6428571,20.2857143 L29.0714286,20.2857143 C28.7738095,20.2857143 28.4799107,20.3824405 28.1897321,20.5758929 C27.8995536,20.7693452 27.6986607,21.0037202 27.5870536,21.2790179 L27.5870536,21.2790179 L26.8058036,23.1428571 L23.3571429,23.1428571 C23.2529762,23.1428571 23.1674107,23.1763393 23.1004464,23.2433036 C23.0334821,23.3102679 23,23.3958333 23,23.5 L23,23.5 L23,24.2142857 C23,24.3184524 23.0334821,24.4040179 23.1004464,24.4709821 C23.1674107,24.5379464 23.2529762,24.5714286 23.3571429,24.5714286 L23.3571429,24.5714286 L24.4285714,24.5714286 L24.4285714,35.1964286 C24.4285714,35.8139881 24.6034226,36.3404018 24.953125,36.7756696 C25.3028274,37.2109375 25.7232143,37.4285714 26.2142857,37.4285714 L26.2142857,37.4285714 L35.5,37.4285714 Z M33.3571429,23.1428571 L28.3571429,23.1428571 L28.9040179,21.8370536 C28.9561012,21.7700893 29.0193452,21.7291667 29.09375,21.7142857 L29.09375,21.7142857 L32.6316964,21.7142857 C32.7061012,21.7291667 32.7693452,21.7700893 32.8214286,21.8370536 L32.8214286,21.8370536 L33.3571429,23.1428571 Z M35.5,36 L26.2142857,36 C26.1919643,36 26.1529018,35.968378 26.0970982,35.9051339 C26.0412946,35.8418899 25.9873512,35.7414435 25.9352679,35.6037946 C25.8831845,35.4661458 25.8571429,35.3154762 25.8571429,35.1517857 L25.8571429,35.1517857 L25.8571429,24.5714286 L35.8571429,24.5714286 L35.8571429,35.1517857 C35.8571429,35.3154762 35.8311012,35.4661458 35.7790179,35.6037946 C35.7269345,35.7414435 35.6729911,35.8418899 35.6171875,35.9051339 C35.5613839,35.968378 35.5223214,36 35.5,36 L35.5,36 Z M28.3571429,33.8571429 C28.4613095,33.8571429 28.546875,33.8236607 28.6138393,33.7566964 C28.6808036,33.6897321 28.7142857,33.6041667 28.7142857,33.5 L28.7142857,33.5 L28.7142857,27.0714286 C28.7142857,26.9672619 28.6808036,26.8816964 28.6138393,26.8147321 C28.546875,26.7477679 28.4613095,26.7142857 28.3571429,26.7142857 L28.3571429,26.7142857 L27.6428571,26.7142857 C27.5386905,26.7142857 27.453125,26.7477679 27.3861607,26.8147321 C27.3191964,26.8816964 27.2857143,26.9672619 27.2857143,27.0714286 L27.2857143,27.0714286 L27.2857143,33.5 C27.2857143,33.6041667 27.3191964,33.6897321 27.3861607,33.7566964 C27.453125,33.8236607 27.5386905,33.8571429 27.6428571,33.8571429 L27.6428571,33.8571429 L28.3571429,33.8571429 Z M31.2142857,33.8571429 C31.3184524,33.8571429 31.4040179,33.8236607 31.4709821,33.7566964 C31.5379464,33.6897321 31.5714286,33.6041667 31.5714286,33.5 L31.5714286,33.5 L31.5714286,27.0714286 C31.5714286,26.9672619 31.5379464,26.8816964 31.4709821,26.8147321 C31.4040179,26.7477679 31.3184524,26.7142857 31.2142857,26.7142857 L31.2142857,26.7142857 L30.5,26.7142857 C30.3958333,26.7142857 30.3102679,26.7477679 30.2433036,26.8147321 C30.1763393,26.8816964 30.1428571,26.9672619 30.1428571,27.0714286 L30.1428571,27.0714286 L30.1428571,33.5 C30.1428571,33.6041667 30.1763393,33.6897321 30.2433036,33.7566964 C30.3102679,33.8236607 30.3958333,33.8571429 30.5,33.8571429 L30.5,33.8571429 L31.2142857,33.8571429 Z M34.0714286,33.8571429 C34.1755952,33.8571429 34.2611607,33.8236607 34.328125,33.7566964 C34.3950893,33.6897321 34.4285714,33.6041667 34.4285714,33.5 L34.4285714,33.5 L34.4285714,27.0714286 C34.4285714,26.9672619 34.3950893,26.8816964 34.328125,26.8147321 C34.2611607,26.7477679 34.1755952,26.7142857 34.0714286,26.7142857 L34.0714286,26.7142857 L33.3571429,26.7142857 C33.2529762,26.7142857 33.1674107,26.7477679 33.1004464,26.8147321 C33.0334821,26.8816964 33,26.9672619 33,27.0714286 L33,27.0714286 L33,33.5 C33,33.6041667 33.0334821,33.6897321 33.1004464,33.7566964 C33.1674107,33.8236607 33.2529762,33.8571429 33.3571429,33.8571429 L33.3571429,33.8571429 L34.0714286,33.8571429 Z" transform="translate(-23 -20)"/>
</svg>
