<svg xmlns="http://www.w3.org/2000/svg" width="52" height="58" viewBox="0 0 52 58">
  <path fill="#20AEE4" d="M141.895375,141.173167 C142.589023,140.928621 143.296633,140.942763 144.0068,141.233394 C146.747983,142.481099 149.156324,144.119738 151.226895,146.14746 C153.290214,148.168079 154.960939,150.428426 156.235932,152.925642 C157.51177,155.424513 158.35278,158.094133 158.758201,160.93007 C159.164873,163.774758 159.058392,166.656613 158.44169,169.562933 C157.823098,172.591884 156.70907,175.36201 155.100621,177.867089 C153.499915,180.360108 151.558974,182.506755 149.280394,184.303242 C147.004004,186.098003 144.4671,187.496071 141.673674,188.495987 C138.87263,189.498629 135.945732,190 132.898058,190 C132.045308,190 131.174495,189.952623 130.285694,189.858013 C129.410809,189.764885 128.536045,189.643835 127.632915,189.489593 C125.931808,189.14884 124.306024,188.646557 122.756674,187.982744 C121.213434,187.321549 119.755994,186.527566 118.385158,185.601074 C117.01237,184.673263 115.736363,183.612996 114.557788,182.420968 C113.380709,181.230454 112.310506,179.918023 111.354429,178.494721 C110.386715,177.092144 109.573585,175.603816 108.915569,174.030724 C108.257645,172.457853 107.773313,170.854688 107.463174,169.22219 C107.154402,167.596883 107,165.952512 107,164.289903 C107,162.823896 107.148666,161.344895 107.441453,159.872857 L107.575744,159.242468 C107.962987,157.270478 108.583034,155.382416 109.435419,153.580125 C110.286107,151.781422 111.330876,150.114069 112.568961,148.579544 C113.806035,147.046274 115.216857,145.664647 116.800157,144.435565 C118.383655,143.206328 120.120339,142.157536 121.986628,141.299981 C122.672646,140.96407 123.405764,140.920114 124.123542,141.173167 C124.783566,141.405858 125.289618,141.83887 125.576886,142.392091 L125.656438,142.561583 C126.005571,143.245401 126.051542,143.980707 125.787947,144.69776 C125.524034,145.415682 125.014431,145.944985 124.35294,146.21361 C122.861641,146.909056 121.49718,147.742028 120.25809,148.712786 C119.018676,149.683798 117.913071,150.775185 116.940088,151.9879 C115.96683,153.200958 115.144364,154.508726 114.471893,155.912487 C113.801927,157.311018 113.308115,158.787705 112.990715,160.341846 C112.459635,162.976966 112.450801,165.589579 112.96364,168.187298 C113.476806,170.786679 114.475894,173.211064 115.958295,175.457886 C117.48501,177.717952 119.326398,179.581921 121.486092,181.055487 C123.640576,182.525499 126.061108,183.537694 128.747981,184.091675 C131.553462,184.648115 134.279283,184.656782 136.932917,184.119714 C139.596153,183.580702 142.022575,182.600732 144.218658,181.178537 C146.414558,179.75646 148.291062,177.953462 149.852308,175.764302 C151.40534,173.586659 152.46371,171.150961 153.028125,168.456534 C153.488643,166.166901 153.559332,163.908421 153.241292,161.676304 C152.922387,159.438112 152.268181,157.342957 151.278122,155.386502 C150.289914,153.433705 148.974715,151.670294 147.328831,150.093133 C145.682228,148.515283 143.777633,147.222669 141.593152,146.205425 C140.924093,145.877819 140.439072,145.359654 140.179986,144.683057 C139.910133,143.97834 139.956805,143.247047 140.306779,142.561583 C140.612345,141.963098 141.08309,141.518774 141.688592,141.254539 L141.895375,141.173167 Z M133,132 C133.784118,132 134.48891,132.263243 135.068824,132.776244 C135.623131,133.266592 135.943655,133.882219 135.993226,134.577629 L136,134.769231 L136,154.230769 C136,155.004814 135.673522,155.688831 135.068824,156.223756 C134.48891,156.736757 133.784118,157 133,157 C132.215882,157 131.51109,156.736757 130.931176,156.223756 C130.376869,155.733408 130.056345,155.117781 130.006774,154.422371 L130,154.230769 L130,134.769231 C130,133.995186 130.326478,133.311169 130.931176,132.776244 C131.51109,132.263243 132.215882,132 133,132 Z" transform="translate(-107 -132)"/>
</svg>
