<svg xmlns="http://www.w3.org/2000/svg" width="16" height="15" viewBox="0 0 16 15">
  <path fill="#FFF" d="M17.0742188,21.9804688 C17.4648438,21.9804688 17.796875,21.84375 18.0703125,21.5703125 C18.34375,21.296875 18.4804688,20.9648438 18.4804688,20.5742188 L18.4804688,11.7851562 L13.6953125,7 L4.90625,7 C4.515625,7 4.18359375,7.13671875 3.91015625,7.41015625 C3.63671875,7.68359375 3.5,8.015625 3.5,8.40625 L3.5,20.5742188 C3.5,20.9648438 3.63671875,21.296875 3.91015625,21.5703125 C4.18359375,21.84375 4.515625,21.9804688 4.90625,21.9804688 L17.0742188,21.9804688 Z M10.9609375,13.1328125 L8.12890625,13.1328125 C7.93359375,13.1328125 7.76757812,13.0644531 7.63085938,12.9277344 C7.49414062,12.7910156 7.42578125,12.625 7.42578125,12.4296875 L7.42578125,8.40625 L11.6640625,8.40625 L11.6640625,12.4296875 C11.6640625,12.625 11.5957031,12.7910156 11.4589844,12.9277344 C11.3222656,13.0644531 11.15625,13.1328125 10.9609375,13.1328125 Z M17.0742188,20.5742188 L4.90625,20.5742188 L4.90625,8.40625 L6.01953125,8.40625 L6.01953125,12.4296875 C6.01953125,13.015625 6.22460938,13.5136719 6.63476562,13.9238281 C7.04492188,14.3339844 7.54296875,14.5390625 8.12890625,14.5390625 L10.9609375,14.5390625 C11.5338542,14.5390625 12.0286458,14.3307292 12.4453125,13.9140625 C12.8619792,13.4973958 13.0703125,13.0026042 13.0703125,12.4296875 L13.0703125,8.40625 L13.109375,8.40625 L17.0742188,12.3710938 L17.0742188,20.5742188 Z" transform="translate(-3 -7)"/>
</svg>
