<svg xmlns="http://www.w3.org/2000/svg" width="35" height="38" viewBox="0 0 35 38">
  <path fill="#FA6456" d="M268.5,288.714286 C269.580357,288.714286 270.505208,288.219122 271.274554,287.228795 C272.043899,286.238467 272.428571,285.063988 272.428571,283.705357 L272.428571,283.705357 L272.428571,260.428571 L274.785714,260.428571 C275.014881,260.428571 275.203125,260.354911 275.350446,260.207589 C275.497768,260.060268 275.571429,259.872024 275.571429,259.642857 L275.571429,259.642857 L275.571429,258.071429 C275.571429,257.842262 275.497768,257.654018 275.350446,257.506696 C275.203125,257.359375 275.014881,257.285714 274.785714,257.285714 L274.785714,257.285714 L267.198661,257.285714 L265.479911,253.185268 C265.234375,252.579613 264.792411,252.063988 264.154018,251.638393 C263.515625,251.212798 262.869048,251 262.214286,251 L262.214286,251 L254.357143,251 C253.702381,251 253.055804,251.212798 252.417411,251.638393 C251.779018,252.063988 251.337054,252.579613 251.091518,253.185268 L251.091518,253.185268 L249.372768,257.285714 L241.785714,257.285714 C241.556548,257.285714 241.368304,257.359375 241.220982,257.506696 C241.073661,257.654018 241,257.842262 241,258.071429 L241,258.071429 L241,259.642857 C241,259.872024 241.073661,260.060268 241.220982,260.207589 C241.368304,260.354911 241.556548,260.428571 241.785714,260.428571 L241.785714,260.428571 L244.142857,260.428571 L244.142857,283.803571 C244.142857,285.162202 244.52753,286.320312 245.296875,287.277902 C246.06622,288.235491 246.991071,288.714286 248.071429,288.714286 L248.071429,288.714286 L268.5,288.714286 Z M263.785714,257.285714 L252.785714,257.285714 L253.988839,254.412946 C254.103423,254.265625 254.24256,254.175595 254.40625,254.142857 L254.40625,254.142857 L262.189732,254.142857 C262.353423,254.175595 262.49256,254.265625 262.607143,254.412946 L262.607143,254.412946 L263.785714,257.285714 Z M268.5,285.571429 L248.071429,285.571429 C248.022321,285.571429 247.936384,285.50186 247.813616,285.362723 C247.690848,285.223586 247.572173,285.002604 247.457589,284.699777 C247.343006,284.396949 247.285714,284.065476 247.285714,283.705357 L247.285714,283.705357 L247.285714,260.428571 L269.285714,260.428571 L269.285714,283.705357 C269.285714,284.065476 269.228423,284.396949 269.113839,284.699777 C268.999256,285.002604 268.88058,285.223586 268.757812,285.362723 C268.635045,285.50186 268.549107,285.571429 268.5,285.571429 L268.5,285.571429 Z M252.785714,280.857143 C253.014881,280.857143 253.203125,280.783482 253.350446,280.636161 C253.497768,280.488839 253.571429,280.300595 253.571429,280.071429 L253.571429,280.071429 L253.571429,265.928571 C253.571429,265.699405 253.497768,265.511161 253.350446,265.363839 C253.203125,265.216518 253.014881,265.142857 252.785714,265.142857 L252.785714,265.142857 L251.214286,265.142857 C250.985119,265.142857 250.796875,265.216518 250.649554,265.363839 C250.502232,265.511161 250.428571,265.699405 250.428571,265.928571 L250.428571,265.928571 L250.428571,280.071429 C250.428571,280.300595 250.502232,280.488839 250.649554,280.636161 C250.796875,280.783482 250.985119,280.857143 251.214286,280.857143 L251.214286,280.857143 L252.785714,280.857143 Z M259.071429,280.857143 C259.300595,280.857143 259.488839,280.783482 259.636161,280.636161 C259.783482,280.488839 259.857143,280.300595 259.857143,280.071429 L259.857143,280.071429 L259.857143,265.928571 C259.857143,265.699405 259.783482,265.511161 259.636161,265.363839 C259.488839,265.216518 259.300595,265.142857 259.071429,265.142857 L259.071429,265.142857 L257.5,265.142857 C257.270833,265.142857 257.082589,265.216518 256.935268,265.363839 C256.787946,265.511161 256.714286,265.699405 256.714286,265.928571 L256.714286,265.928571 L256.714286,280.071429 C256.714286,280.300595 256.787946,280.488839 256.935268,280.636161 C257.082589,280.783482 257.270833,280.857143 257.5,280.857143 L257.5,280.857143 L259.071429,280.857143 Z M265.357143,280.857143 C265.58631,280.857143 265.774554,280.783482 265.921875,280.636161 C266.069196,280.488839 266.142857,280.300595 266.142857,280.071429 L266.142857,280.071429 L266.142857,265.928571 C266.142857,265.699405 266.069196,265.511161 265.921875,265.363839 C265.774554,265.216518 265.58631,265.142857 265.357143,265.142857 L265.357143,265.142857 L263.785714,265.142857 C263.556548,265.142857 263.368304,265.216518 263.220982,265.363839 C263.073661,265.511161 263,265.699405 263,265.928571 L263,265.928571 L263,280.071429 C263,280.300595 263.073661,280.488839 263.220982,280.636161 C263.368304,280.783482 263.556548,280.857143 263.785714,280.857143 L263.785714,280.857143 L265.357143,280.857143 Z" transform="translate(-241 -251)"/>
</svg>
